<mxfile host="app.diagrams.net" modified="2023-12-28T14:14:22.603Z" agent="Mozilla/5.0 (X11; Ubuntu; Linux x86_64; rv:120.0) Gecko/20100101 Firefox/120.0" etag="o71LWDE4AF9Slu6Xt2G0" version="22.1.15" type="device">
  <diagram name="Page-1" id="V4t_UYVcqcM2PL4xniRO">
    <mxGraphModel dx="2924" dy="793" grid="1" gridSize="10" guides="1" tooltips="1" connect="1" arrows="1" fold="1" page="1" pageScale="1" pageWidth="850" pageHeight="1100" math="0" shadow="0">
      <root>
        <mxCell id="0" />
        <mxCell id="1" parent="0" />
        <mxCell id="JmU3zoDDMFH5RzHn-16W-3" value="EXPOSED CONTAINER" style="swimlane;whiteSpace=wrap;html=1;fillColor=#f5f5f5;strokeColor=#666666;gradientColor=#b3b3b3;" parent="1" vertex="1">
          <mxGeometry x="-415" y="355" width="210" height="340" as="geometry" />
        </mxCell>
        <mxCell id="JmU3zoDDMFH5RzHn-16W-22" style="edgeStyle=orthogonalEdgeStyle;rounded=0;orthogonalLoop=1;jettySize=auto;html=1;" parent="1" source="JmU3zoDDMFH5RzHn-16W-13" target="JmU3zoDDMFH5RzHn-16W-5" edge="1">
          <mxGeometry relative="1" as="geometry" />
        </mxCell>
        <mxCell id="JmU3zoDDMFH5RzHn-16W-13" value="CLIENT" style="rounded=0;whiteSpace=wrap;html=1;fillColor=#647687;strokeColor=#314354;fontColor=#ffffff;" parent="1" vertex="1">
          <mxGeometry x="-610" y="504" width="100" height="60" as="geometry" />
        </mxCell>
        <mxCell id="JmU3zoDDMFH5RzHn-16W-40" value="&lt;h1&gt;Nginx Reverse Proxy Python Separated&lt;br&gt;&lt;/h1&gt;&lt;p&gt;Dockerized project using Nginx Reverse Proxy and PYTHON.&lt;/p&gt;" style="text;html=1;strokeColor=none;fillColor=none;spacing=5;spacingTop=-20;whiteSpace=wrap;overflow=hidden;rounded=0;" parent="1" vertex="1">
          <mxGeometry x="-610" y="225" width="890" height="80" as="geometry" />
        </mxCell>
        <mxCell id="JmU3zoDDMFH5RzHn-16W-41" value="&lt;div&gt;NGINX&lt;/div&gt;&lt;div&gt;SERVER&lt;br&gt;&lt;/div&gt;" style="shape=cube;whiteSpace=wrap;html=1;boundedLbl=1;backgroundOutline=1;darkOpacity=0.05;darkOpacity2=0.1;" parent="1" vertex="1">
          <mxGeometry x="-335" y="735" width="70" height="100" as="geometry" />
        </mxCell>
        <mxCell id="JmU3zoDDMFH5RzHn-16W-45" style="edgeStyle=orthogonalEdgeStyle;rounded=0;orthogonalLoop=1;jettySize=auto;html=1;entryX=0;entryY=0;entryDx=25;entryDy=0;entryPerimeter=0;dashed=1;endArrow=none;endFill=0;" parent="1" source="JmU3zoDDMFH5RzHn-16W-3" target="JmU3zoDDMFH5RzHn-16W-41" edge="1">
          <mxGeometry relative="1" as="geometry" />
        </mxCell>
        <mxCell id="JmU3zoDDMFH5RzHn-16W-50" value="IP: 10.0.0.2" style="text;html=1;strokeColor=none;fillColor=none;align=center;verticalAlign=middle;whiteSpace=wrap;rounded=0;" parent="1" vertex="1">
          <mxGeometry x="-265" y="755" width="70" height="20" as="geometry" />
        </mxCell>
        <mxCell id="JmU3zoDDMFH5RzHn-16W-51" value="IP: 50.12.93.15 (example)" style="text;html=1;strokeColor=none;fillColor=none;align=center;verticalAlign=middle;whiteSpace=wrap;rounded=0;" parent="1" vertex="1">
          <mxGeometry x="-485" y="735" width="150" height="30" as="geometry" />
        </mxCell>
        <mxCell id="JmU3zoDDMFH5RzHn-16W-52" style="edgeStyle=orthogonalEdgeStyle;rounded=0;orthogonalLoop=1;jettySize=auto;html=1;entryX=0;entryY=0;entryDx=0;entryDy=40;entryPerimeter=0;" parent="1" source="JmU3zoDDMFH5RzHn-16W-41" target="JmU3zoDDMFH5RzHn-16W-42" edge="1">
          <mxGeometry relative="1" as="geometry" />
        </mxCell>
        <mxCell id="JmU3zoDDMFH5RzHn-16W-53" value="http://localhost" style="text;html=1;strokeColor=none;fillColor=none;align=center;verticalAlign=middle;whiteSpace=wrap;rounded=0;" parent="1" vertex="1">
          <mxGeometry x="-451.25" y="775" width="82.5" height="30" as="geometry" />
        </mxCell>
        <mxCell id="JmU3zoDDMFH5RzHn-16W-77" value="&#xa;&#xa;RESTRICT LAN" style="swimlane;startSize=0;dashed=1;fillColor=#f8cecc;strokeColor=#b85450;fontColor=#FF0000;" parent="1" vertex="1">
          <mxGeometry x="-155" y="315" width="255" height="560" as="geometry" />
        </mxCell>
        <mxCell id="JmU3zoDDMFH5RzHn-16W-2" value="PROTECTED CONTAINER" style="swimlane;whiteSpace=wrap;html=1;fillColor=#f5f5f5;gradientColor=#b3b3b3;strokeColor=#666666;" parent="JmU3zoDDMFH5RzHn-16W-77" vertex="1">
          <mxGeometry x="40" y="40" width="180" height="340" as="geometry" />
        </mxCell>
        <mxCell id="JmU3zoDDMFH5RzHn-16W-9" value="APP 1 (Python)" style="swimlane;fontStyle=0;childLayout=stackLayout;horizontal=1;startSize=30;horizontalStack=0;resizeParent=1;resizeParentMax=0;resizeLast=0;collapsible=1;marginBottom=0;whiteSpace=wrap;html=1;fillColor=#f8cecc;strokeColor=#b85450;" parent="JmU3zoDDMFH5RzHn-16W-2" vertex="1">
          <mxGeometry x="20" y="29" width="140" height="150" as="geometry" />
        </mxCell>
        <mxCell id="JmU3zoDDMFH5RzHn-16W-10" value="Port" style="text;strokeColor=#6c8ebf;fillColor=#dae8fc;align=left;verticalAlign=middle;spacingLeft=4;spacingRight=4;overflow=hidden;points=[[0,0.5],[1,0.5]];portConstraint=eastwest;rotatable=0;whiteSpace=wrap;html=1;" parent="JmU3zoDDMFH5RzHn-16W-9" vertex="1">
          <mxGeometry y="30" width="140" height="30" as="geometry" />
        </mxCell>
        <mxCell id="JmU3zoDDMFH5RzHn-16W-11" value="55001" style="text;strokeColor=none;fillColor=none;align=left;verticalAlign=middle;spacingLeft=4;spacingRight=4;overflow=hidden;points=[[0,0.5],[1,0.5]];portConstraint=eastwest;rotatable=0;whiteSpace=wrap;html=1;" parent="JmU3zoDDMFH5RzHn-16W-9" vertex="1">
          <mxGeometry y="60" width="140" height="30" as="geometry" />
        </mxCell>
        <mxCell id="JmU3zoDDMFH5RzHn-16W-61" value="Location" style="text;strokeColor=#6c8ebf;fillColor=#dae8fc;align=left;verticalAlign=middle;spacingLeft=4;spacingRight=4;overflow=hidden;points=[[0,0.5],[1,0.5]];portConstraint=eastwest;rotatable=0;whiteSpace=wrap;html=1;" parent="JmU3zoDDMFH5RzHn-16W-9" vertex="1">
          <mxGeometry y="90" width="140" height="30" as="geometry" />
        </mxCell>
        <mxCell id="JmU3zoDDMFH5RzHn-16W-62" value="/app1/api/welcome/" style="text;strokeColor=none;fillColor=none;align=left;verticalAlign=middle;spacingLeft=4;spacingRight=4;overflow=hidden;points=[[0,0.5],[1,0.5]];portConstraint=eastwest;rotatable=0;whiteSpace=wrap;html=1;" parent="JmU3zoDDMFH5RzHn-16W-9" vertex="1">
          <mxGeometry y="120" width="140" height="30" as="geometry" />
        </mxCell>
        <mxCell id="_cjX90c_FEOJBBdORNI7-5" value="APP 2 (Python)" style="swimlane;fontStyle=0;childLayout=stackLayout;horizontal=1;startSize=30;horizontalStack=0;resizeParent=1;resizeParentMax=0;resizeLast=0;collapsible=1;marginBottom=0;whiteSpace=wrap;html=1;fillColor=#f8cecc;strokeColor=#b85450;" vertex="1" parent="JmU3zoDDMFH5RzHn-16W-2">
          <mxGeometry x="20" y="185" width="140" height="150" as="geometry" />
        </mxCell>
        <mxCell id="_cjX90c_FEOJBBdORNI7-10" value="Port" style="text;strokeColor=#6c8ebf;fillColor=#dae8fc;align=left;verticalAlign=middle;spacingLeft=4;spacingRight=4;overflow=hidden;points=[[0,0.5],[1,0.5]];portConstraint=eastwest;rotatable=0;whiteSpace=wrap;html=1;" vertex="1" parent="_cjX90c_FEOJBBdORNI7-5">
          <mxGeometry y="30" width="140" height="30" as="geometry" />
        </mxCell>
        <mxCell id="_cjX90c_FEOJBBdORNI7-11" value="55002" style="text;strokeColor=none;fillColor=none;align=left;verticalAlign=middle;spacingLeft=4;spacingRight=4;overflow=hidden;points=[[0,0.5],[1,0.5]];portConstraint=eastwest;rotatable=0;whiteSpace=wrap;html=1;" vertex="1" parent="_cjX90c_FEOJBBdORNI7-5">
          <mxGeometry y="60" width="140" height="30" as="geometry" />
        </mxCell>
        <mxCell id="_cjX90c_FEOJBBdORNI7-12" value="&lt;div&gt;Localtion&lt;/div&gt;" style="text;strokeColor=#6c8ebf;fillColor=#dae8fc;align=left;verticalAlign=middle;spacingLeft=4;spacingRight=4;overflow=hidden;points=[[0,0.5],[1,0.5]];portConstraint=eastwest;rotatable=0;whiteSpace=wrap;html=1;" vertex="1" parent="_cjX90c_FEOJBBdORNI7-5">
          <mxGeometry y="90" width="140" height="30" as="geometry" />
        </mxCell>
        <mxCell id="_cjX90c_FEOJBBdORNI7-13" value="/app2/api/welcome/" style="text;strokeColor=none;fillColor=none;align=left;verticalAlign=middle;spacingLeft=4;spacingRight=4;overflow=hidden;points=[[0,0.5],[1,0.5]];portConstraint=eastwest;rotatable=0;whiteSpace=wrap;html=1;" vertex="1" parent="_cjX90c_FEOJBBdORNI7-5">
          <mxGeometry y="120" width="140" height="30" as="geometry" />
        </mxCell>
        <mxCell id="JmU3zoDDMFH5RzHn-16W-42" value="&lt;div&gt;PYTHON&lt;/div&gt;&lt;div&gt;CONTAINER&lt;br&gt;&lt;/div&gt;" style="shape=cube;whiteSpace=wrap;html=1;boundedLbl=1;backgroundOutline=1;darkOpacity=0.05;darkOpacity2=0.1;" parent="JmU3zoDDMFH5RzHn-16W-77" vertex="1">
          <mxGeometry x="105" y="430" width="70" height="100" as="geometry" />
        </mxCell>
        <mxCell id="JmU3zoDDMFH5RzHn-16W-46" style="edgeStyle=orthogonalEdgeStyle;rounded=0;orthogonalLoop=1;jettySize=auto;html=1;entryX=0;entryY=0;entryDx=25;entryDy=0;entryPerimeter=0;dashed=1;endArrow=none;endFill=0;" parent="JmU3zoDDMFH5RzHn-16W-77" source="JmU3zoDDMFH5RzHn-16W-2" target="JmU3zoDDMFH5RzHn-16W-42" edge="1">
          <mxGeometry relative="1" as="geometry" />
        </mxCell>
        <mxCell id="JmU3zoDDMFH5RzHn-16W-48" value="IP: 10.0.0.3" style="text;html=1;strokeColor=none;fillColor=none;align=center;verticalAlign=middle;whiteSpace=wrap;rounded=0;" parent="JmU3zoDDMFH5RzHn-16W-77" vertex="1">
          <mxGeometry x="175" y="450" width="70" height="20" as="geometry" />
        </mxCell>
        <mxCell id="JmU3zoDDMFH5RzHn-16W-78" value="&#xa;EXPOSED LAN" style="swimlane;startSize=0;dashed=1;fillColor=#d5e8d4;strokeColor=#82b366;fontColor=#00CC00;" parent="1" vertex="1">
          <mxGeometry x="-485" y="335" width="360" height="520" as="geometry" />
        </mxCell>
        <mxCell id="JmU3zoDDMFH5RzHn-16W-5" value="nginx-reverse-proxy" style="swimlane;fontStyle=0;childLayout=stackLayout;horizontal=1;startSize=30;horizontalStack=0;resizeParent=1;resizeParentMax=0;resizeLast=0;collapsible=1;marginBottom=0;whiteSpace=wrap;html=1;fillColor=#f8cecc;strokeColor=#b85450;" parent="JmU3zoDDMFH5RzHn-16W-78" vertex="1">
          <mxGeometry x="105" y="109" width="140" height="180" as="geometry" />
        </mxCell>
        <mxCell id="JmU3zoDDMFH5RzHn-16W-6" value="Port" style="text;strokeColor=#6c8ebf;fillColor=#dae8fc;align=left;verticalAlign=middle;spacingLeft=4;spacingRight=4;overflow=hidden;points=[[0,0.5],[1,0.5]];portConstraint=eastwest;rotatable=0;whiteSpace=wrap;html=1;" parent="JmU3zoDDMFH5RzHn-16W-5" vertex="1">
          <mxGeometry y="30" width="140" height="30" as="geometry" />
        </mxCell>
        <mxCell id="JmU3zoDDMFH5RzHn-16W-7" value="85" style="text;strokeColor=none;fillColor=none;align=left;verticalAlign=middle;spacingLeft=4;spacingRight=4;overflow=hidden;points=[[0,0.5],[1,0.5]];portConstraint=eastwest;rotatable=0;whiteSpace=wrap;html=1;" parent="JmU3zoDDMFH5RzHn-16W-5" vertex="1">
          <mxGeometry y="60" width="140" height="30" as="geometry" />
        </mxCell>
        <mxCell id="JmU3zoDDMFH5RzHn-16W-54" value="Location" style="text;strokeColor=#6c8ebf;fillColor=#dae8fc;align=left;verticalAlign=middle;spacingLeft=4;spacingRight=4;overflow=hidden;points=[[0,0.5],[1,0.5]];portConstraint=eastwest;rotatable=0;whiteSpace=wrap;html=1;" parent="JmU3zoDDMFH5RzHn-16W-5" vertex="1">
          <mxGeometry y="90" width="140" height="30" as="geometry" />
        </mxCell>
        <mxCell id="JmU3zoDDMFH5RzHn-16W-55" value="/app1/" style="text;strokeColor=none;fillColor=none;align=left;verticalAlign=middle;spacingLeft=4;spacingRight=4;overflow=hidden;points=[[0,0.5],[1,0.5]];portConstraint=eastwest;rotatable=0;whiteSpace=wrap;html=1;" parent="JmU3zoDDMFH5RzHn-16W-5" vertex="1">
          <mxGeometry y="120" width="140" height="30" as="geometry" />
        </mxCell>
        <mxCell id="JmU3zoDDMFH5RzHn-16W-56" value="/app2/" style="text;strokeColor=none;fillColor=none;align=left;verticalAlign=middle;spacingLeft=4;spacingRight=4;overflow=hidden;points=[[0,0.5],[1,0.5]];portConstraint=eastwest;rotatable=0;whiteSpace=wrap;html=1;" parent="JmU3zoDDMFH5RzHn-16W-5" vertex="1">
          <mxGeometry y="150" width="140" height="30" as="geometry" />
        </mxCell>
        <mxCell id="_cjX90c_FEOJBBdORNI7-14" style="edgeStyle=orthogonalEdgeStyle;rounded=0;orthogonalLoop=1;jettySize=auto;html=1;" edge="1" parent="1" source="JmU3zoDDMFH5RzHn-16W-55" target="JmU3zoDDMFH5RzHn-16W-62">
          <mxGeometry relative="1" as="geometry" />
        </mxCell>
        <mxCell id="_cjX90c_FEOJBBdORNI7-15" style="edgeStyle=orthogonalEdgeStyle;rounded=0;orthogonalLoop=1;jettySize=auto;html=1;" edge="1" parent="1" source="JmU3zoDDMFH5RzHn-16W-56" target="_cjX90c_FEOJBBdORNI7-13">
          <mxGeometry relative="1" as="geometry" />
        </mxCell>
        <mxCell id="_cjX90c_FEOJBBdORNI7-16" value="INTERNET" style="ellipse;shape=cloud;whiteSpace=wrap;html=1;" vertex="1" parent="1">
          <mxGeometry x="150" y="580" width="120" height="80" as="geometry" />
        </mxCell>
        <mxCell id="_cjX90c_FEOJBBdORNI7-17" style="edgeStyle=orthogonalEdgeStyle;rounded=0;orthogonalLoop=1;jettySize=auto;html=1;entryX=0.55;entryY=0.95;entryDx=0;entryDy=0;entryPerimeter=0;" edge="1" parent="1" source="JmU3zoDDMFH5RzHn-16W-42" target="_cjX90c_FEOJBBdORNI7-16">
          <mxGeometry relative="1" as="geometry" />
        </mxCell>
        <mxCell id="_cjX90c_FEOJBBdORNI7-18" value="downloads" style="edgeLabel;html=1;align=center;verticalAlign=middle;resizable=0;points=[];" vertex="1" connectable="0" parent="_cjX90c_FEOJBBdORNI7-17">
          <mxGeometry x="-0.3194" y="-4" relative="1" as="geometry">
            <mxPoint x="19" y="-4" as="offset" />
          </mxGeometry>
        </mxCell>
        <mxCell id="_cjX90c_FEOJBBdORNI7-19" style="edgeStyle=orthogonalEdgeStyle;rounded=0;orthogonalLoop=1;jettySize=auto;html=1;entryX=0;entryY=0;entryDx=45;entryDy=100;entryPerimeter=0;dashed=1;fillColor=#e51400;strokeColor=#B20000;" edge="1" parent="1" source="JmU3zoDDMFH5RzHn-16W-13" target="JmU3zoDDMFH5RzHn-16W-42">
          <mxGeometry relative="1" as="geometry">
            <Array as="points">
              <mxPoint x="-560" y="910" />
              <mxPoint x="-5" y="910" />
            </Array>
          </mxGeometry>
        </mxCell>
        <mxCell id="_cjX90c_FEOJBBdORNI7-25" value="External access not allowed (the container is protected)" style="edgeLabel;html=1;align=center;verticalAlign=middle;resizable=0;points=[];" vertex="1" connectable="0" parent="_cjX90c_FEOJBBdORNI7-19">
          <mxGeometry x="-0.0207" y="-1" relative="1" as="geometry">
            <mxPoint x="143" y="-1" as="offset" />
          </mxGeometry>
        </mxCell>
        <mxCell id="_cjX90c_FEOJBBdORNI7-26" value="NOTE: The python container is allowed to get downloads from the internet if needed, but the internet don&#39;t can be access the python container !" style="shape=callout;whiteSpace=wrap;html=1;perimeter=calloutPerimeter;fillColor=#e51400;strokeColor=#B20000;fontColor=#ffffff;" vertex="1" parent="1">
          <mxGeometry x="140" y="370" width="130" height="150" as="geometry" />
        </mxCell>
      </root>
    </mxGraphModel>
  </diagram>
</mxfile>
